<?xml version="1.0" encoding="UTF-8" standalone="no"?>
<!-- Created with Inkscape (http://www.inkscape.org/) -->

<svg
   width="7.9999309mm"
   height="7.9999413mm"
   viewBox="0 0 7.9999309 7.9999413"
   version="1.1"
   id="svg9868"
   inkscape:version="1.2.2 (732a01da63, 2022-12-09)"
   sodipodi:docname="background.svg"
   inkscape:export-filename="circle.svg"
   inkscape:export-xdpi="96"
   inkscape:export-ydpi="96"
   xmlns:inkscape="http://www.inkscape.org/namespaces/inkscape"
   xmlns:sodipodi="http://sodipodi.sourceforge.net/DTD/sodipodi-0.dtd"
   xmlns="http://www.w3.org/2000/svg"
   xmlns:svg="http://www.w3.org/2000/svg">
  <sodipodi:namedview
     id="namedview9870"
     pagecolor="#ffffff"
     bordercolor="#999999"
     borderopacity="1"
     inkscape:showpageshadow="0"
     inkscape:pageopacity="0"
     inkscape:pagecheckerboard="true"
     inkscape:deskcolor="#d1d1d1"
     inkscape:document-units="mm"
     showgrid="false"
     inkscape:zoom="2.9540685"
     inkscape:cx="26.573521"
     inkscape:cy="50.100396"
     inkscape:window-width="1920"
     inkscape:window-height="1009"
     inkscape:window-x="-8"
     inkscape:window-y="355"
     inkscape:window-maximized="1"
     inkscape:current-layer="layer1" />
  <defs
     id="defs9865">
    <clipPath
       clipPathUnits="userSpaceOnUse"
       id="clipPath1276">
      <path
         d="M 59.142,27.33 H 81.819 V 50.007 H 59.142 Z"
         id="path1274" />
    </clipPath>
  </defs>
  <g
     inkscape:label="Lager 1"
     inkscape:groupmode="layer"
     id="layer1"
     transform="translate(-64.455346,-134.71411)">
    <g
       id="g1270"
       transform="matrix(0.35277777,0,0,-0.35277777,43.591363,152.35547)">
      <g
         id="g1272"
         clip-path="url(#clipPath1276)">
        <g
           id="g1278"
           transform="matrix(1.9726132,0,0,-1.9724246,38.770042,37.939911)">
          <g
             id="g1280"
             transform="translate(17.8253,-0.3693)">
            <path
               d="M 0,0 C 0,0.965 -0.785,1.75 -1.75,1.75 -2.714,1.75 -3.5,0.965 -3.5,0 c 0,-0.964 0.786,-1.749 1.75,-1.749 C -0.785,-1.749 0,-0.964 0,0 m -1.75,-5.749 c -3.169,0 -5.748,2.58 -5.748,5.749 0,3.17 2.579,5.749 5.748,5.749 3.17,0 5.748,-2.579 5.748,-5.749 0,-3.169 -2.578,-5.749 -5.748,-5.749"
               style="fill:#231f20;fill-opacity:1;fill-rule:nonzero;stroke:none"
               id="path1282" />
          </g>
        </g>
      </g>
    </g>
  </g>
</svg>
