<?xml version="1.0" encoding="UTF-8" standalone="no"?>
<!-- Created with Inkscape (http://www.inkscape.org/) -->

<svg
   width="200mm"
   height="200.02116mm"
   viewBox="0 0 200 200.02116"
   version="1.1"
   id="svg19477"
   inkscape:export-filename="green.svg"
   inkscape:export-xdpi="96"
   inkscape:export-ydpi="96"
   xmlns:inkscape="http://www.inkscape.org/namespaces/inkscape"
   xmlns:sodipodi="http://sodipodi.sourceforge.net/DTD/sodipodi-0.dtd"
   xmlns="http://www.w3.org/2000/svg"
   xmlns:svg="http://www.w3.org/2000/svg">
  <sodipodi:namedview
     id="namedview19479"
     pagecolor="#ffffff"
     bordercolor="#999999"
     borderopacity="1"
     inkscape:showpageshadow="0"
     inkscape:pageopacity="0"
     inkscape:pagecheckerboard="true"
     inkscape:deskcolor="#d1d1d1"
     inkscape:document-units="mm"
     showgrid="false"
     inkscape:zoom="8.3553674"
     inkscape:cx="8.1384812"
     inkscape:cy="1.7952532"
     inkscape:window-width="1920"
     inkscape:window-height="1009"
     inkscape:window-x="-8"
     inkscape:window-y="355"
     inkscape:window-maximized="1"
     inkscape:current-layer="layer1" />
  <defs
     id="defs19474">
    <clipPath
       clipPathUnits="userSpaceOnUse"
       id="clipPath238">
      <path
         d="m 154.5,739.171 h 22.652 v 22.652 H 154.5 Z"
         id="path236" />
    </clipPath>
  </defs>
  <g
     inkscape:label="Lager 1"
     inkscape:groupmode="layer"
     id="layer1"
     transform="translate(-119.93594,-97.790026)">
    <g
       id="g232"
       transform="matrix(10.581451,0,0,-10.581451,-1534.7501,8139.1489)">
      <g
         id="g234"
         clip-path="url(#clipPath238)">
        <g
           id="g240"
           transform="translate(174.8776,750.4971)">
          <path
             d="m 0,0 c 0,-4.999 -4.052,-9.052 -9.051,-9.052 -4.999,0 -9.051,4.053 -9.051,9.052 0,4.998 4.052,9.052 9.051,9.052 C -4.052,9.052 0,4.998 0,0"
             style="fill:#5fc89e;fill-opacity:1;fill-rule:nonzero;stroke:none"
             id="path242" />
        </g>
        <g
           id="g244"
           transform="translate(174.8776,750.4971)">
          <path
             d="m 0,0 c 0,-4.999 -4.052,-9.052 -9.051,-9.052 -4.999,0 -9.051,4.053 -9.051,9.052 0,4.998 4.052,9.052 9.051,9.052 C -4.052,9.052 0,4.998 0,0 Z"
             style="fill:none;stroke:#231f20;stroke-width:0.799;stroke-linecap:butt;stroke-linejoin:miter;stroke-miterlimit:10;stroke-dasharray:none;stroke-opacity:1"
             id="path246" />
        </g>
        <g
           id="g248"
           transform="translate(170.8797,751.4121)">
          <path
             d="M 0,0 C 0.903,0.014 0.618,0.957 1.013,1.504 1.207,0.946 1.065,0.243 0.337,-0.214 0.283,-0.363 0.477,-0.227 0.521,-0.338 0.38,-0.437 0.236,-0.497 0.093,-0.584 c -0.047,-0.139 0.16,-0.11 0.214,-0.214 -0.609,-0.098 -0.834,-0.86 -1.413,-0.984 -0.569,-0.879 -1.652,-0.906 -2.425,-1.197 -0.124,10e-4 -0.047,0.073 -0.092,0.154 -0.823,-0.368 -0.499,-1.187 -0.584,-1.752 -0.474,-0.188 -0.764,-0.585 -1.32,-0.827 -0.168,0.232 -0.707,0.161 -0.551,0.552 -0.355,0.005 -0.237,0.491 -0.615,0.552 0.189,0.483 1.191,0.904 1.381,1.444 -0.112,0.008 -0.224,-0.206 -0.339,-0.154 -0.115,0.072 -0.036,0.144 -0.151,0.215 -0.175,-0.006 -0.349,-0.086 -0.523,0.092 -0.46,-0.126 -0.921,0.2 -1.382,0.216 -0.102,0.083 -0.02,0.217 -0.153,0.214 -0.811,-0.242 -1.395,0.791 -2.18,0.89 -0.023,0.092 -0.112,0.184 0.031,0.276 -0.155,-0.022 -0.308,-0.028 -0.462,0.031 -0.041,0.103 -0.096,0.205 0.063,0.308 -0.184,0.039 -0.368,-0.022 -0.554,0.185 0.112,0.126 0.226,0.092 0.338,0.152 -0.254,0.06 -0.511,0.077 -0.767,0.093 0.215,0.283 0.695,0.106 1.013,0.277 -0.449,0.142 -0.901,0.038 -1.349,0.428 0.52,0.01 1.042,-0.142 1.565,-0.091 -0.494,0.214 -1.146,0.205 -1.536,0.736 0.582,-0.095 1.166,-0.468 1.749,-0.46 -0.494,0.214 -1.14,0.481 -1.534,1.106 0.635,-0.345 1.269,-0.748 1.904,-0.983 -0.351,0.258 -1.201,0.684 -1.382,1.258 0.584,-0.387 1.167,-0.947 1.749,-1.198 -0.202,0.324 -0.965,0.666 -0.859,1.107 0.331,-0.322 0.594,-0.624 0.952,-0.891 0.294,-0.219 0.5,-0.248 0.89,-0.337 1.202,-0.279 2.574,-0.954 3.501,-1.105 0.227,-0.038 0.493,0.032 0.736,0.06 0.385,0.484 0.932,1.42 1.412,0.737 C -2.914,0.118 -2.936,-0.298 -2.918,-0.584 -1.946,-0.363 -0.973,-0.325 0,0.123 0.063,0.081 0.035,0.041 0,0"
             style="fill:#231f20;fill-opacity:1;fill-rule:nonzero;stroke:none"
             id="path250" />
        </g>
      </g>
    </g>
  </g>
</svg>
