<?xml version="1.0" encoding="UTF-8" standalone="no"?>
<!-- Created with Inkscape (http://www.inkscape.org/) -->

<svg
   width="7.9997582mm"
   height="7.9995885mm"
   viewBox="0 0 7.9997583 7.9995885"
   version="1.1"
   id="svg9868"
   inkscape:version="1.2.2 (732a01da63, 2022-12-09)"
   sodipodi:docname="background.svg"
   inkscape:export-filename="rectangle.svg"
   inkscape:export-xdpi="96"
   inkscape:export-ydpi="96"
   xmlns:inkscape="http://www.inkscape.org/namespaces/inkscape"
   xmlns:sodipodi="http://sodipodi.sourceforge.net/DTD/sodipodi-0.dtd"
   xmlns="http://www.w3.org/2000/svg"
   xmlns:svg="http://www.w3.org/2000/svg">
  <sodipodi:namedview
     id="namedview9870"
     pagecolor="#ffffff"
     bordercolor="#999999"
     borderopacity="1"
     inkscape:showpageshadow="0"
     inkscape:pageopacity="0"
     inkscape:pagecheckerboard="true"
     inkscape:deskcolor="#d1d1d1"
     inkscape:document-units="mm"
     showgrid="false"
     inkscape:zoom="2.9540685"
     inkscape:cx="26.573521"
     inkscape:cy="50.100396"
     inkscape:window-width="1920"
     inkscape:window-height="1009"
     inkscape:window-x="-8"
     inkscape:window-y="355"
     inkscape:window-maximized="1"
     inkscape:current-layer="layer1" />
  <defs
     id="defs9865">
    <clipPath
       clipPathUnits="userSpaceOnUse"
       id="clipPath1220">
      <path
         d="m 182.527,27.331 h 22.677 v 22.676 h -22.677 z"
         id="path1218" />
    </clipPath>
  </defs>
  <g
     inkscape:label="Lager 1"
     inkscape:groupmode="layer"
     id="layer1"
     transform="translate(-80.909143,-152.95951)">
    <g
       id="g1214"
       transform="matrix(0.35277777,0,0,-0.35277777,16.517492,170.60087)">
      <g
         id="g1216"
         clip-path="url(#clipPath1220)">
        <g
           id="g1222"
           transform="matrix(1.8421724,0,0,-1.8423094,188.6824,36.927864)">
          <g
             id="g1224"
             transform="translate(2.8139,0.8052)">
            <path
               d="m 0,0 c -0.965,0 -1.75,-0.786 -1.75,-1.75 0,-0.965 0.785,-1.75 1.75,-1.75 0.965,0 1.75,0.785 1.75,1.75 C 1.75,-0.786 0.965,0 0,0 M 2.549,-7.905 H -2.55 L -6.155,-4.3 V 0.8 L -2.55,4.404 H 2.549 L 6.106,0.848 6.155,0.8 v -5.1 z"
               style="fill:#231f20;fill-opacity:1;fill-rule:nonzero;stroke:none"
               id="path1226" />
          </g>
        </g>
      </g>
    </g>
  </g>
</svg>
