<?xml version="1.0" encoding="UTF-8" standalone="no"?>
<!-- Created with Inkscape (http://www.inkscape.org/) -->

<svg
   width="200mm"
   height="200.02116mm"
   viewBox="0 0 200 200.02116"
   version="1.1"
   id="svg19477"
   inkscape:export-filename="green.svg"
   inkscape:export-xdpi="96"
   inkscape:export-ydpi="96"
   xmlns:inkscape="http://www.inkscape.org/namespaces/inkscape"
   xmlns:sodipodi="http://sodipodi.sourceforge.net/DTD/sodipodi-0.dtd"
   xmlns="http://www.w3.org/2000/svg"
   xmlns:svg="http://www.w3.org/2000/svg">
  <sodipodi:namedview
     id="namedview19479"
     pagecolor="#ffffff"
     bordercolor="#999999"
     borderopacity="1"
     inkscape:showpageshadow="0"
     inkscape:pageopacity="0"
     inkscape:pagecheckerboard="true"
     inkscape:deskcolor="#d1d1d1"
     inkscape:document-units="mm"
     showgrid="false"
     inkscape:zoom="8.3553674"
     inkscape:cx="8.1384812"
     inkscape:cy="1.7952532"
     inkscape:window-width="1920"
     inkscape:window-height="1009"
     inkscape:window-x="-8"
     inkscape:window-y="355"
     inkscape:window-maximized="1"
     inkscape:current-layer="layer1" />
  <defs
     id="defs19474">
    <clipPath
       clipPathUnits="userSpaceOnUse"
       id="clipPath258-0">
      <path
         d="m 179.989,739.171 h 22.652 v 22.652 h -22.652 z"
         id="path256-4" />
    </clipPath>
  </defs>
  <g
     inkscape:label="Lager 1"
     inkscape:groupmode="layer"
     id="layer1"
     transform="translate(-226.04068,-182.10773)">
    <g
       id="g252"
       transform="matrix(10.581451,0,0,-10.581451,-1698.3475,8223.4666)">
      <g
         id="g254"
         clip-path="url(#clipPath258-0)">
        <g
           id="g260"
           transform="translate(200.3658,750.4971)">
          <path
             d="m 0,0 c 0,-4.999 -4.052,-9.052 -9.051,-9.052 -4.999,0 -9.051,4.053 -9.051,9.052 0,4.998 4.052,9.052 9.051,9.052 C -4.052,9.052 0,4.998 0,0"
             style="fill:#ea97d1;fill-opacity:1;fill-rule:nonzero;stroke:none"
             id="path262" />
        </g>
        <g
           id="g264"
           transform="translate(200.3658,750.4971)">
          <path
             d="m 0,0 c 0,-4.999 -4.052,-9.052 -9.051,-9.052 -4.999,0 -9.051,4.053 -9.051,9.052 0,4.998 4.052,9.052 9.051,9.052 C -4.052,9.052 0,4.998 0,0 Z"
             style="fill:none;stroke:#231f20;stroke-width:0.799;stroke-linecap:butt;stroke-linejoin:miter;stroke-miterlimit:10;stroke-dasharray:none;stroke-opacity:1"
             id="path266" />
        </g>
        <g
           id="g268"
           transform="translate(196.2555,747.3853)">
          <path
             d="m 0,0 c 0.389,0.141 0.907,-0.061 0.84,-0.336 -0.605,0 -1.076,-0.121 -1.566,0.053 C -1.055,0.344 -1.681,0.672 -2.184,1.116 -2.46,0.981 -2.608,0.914 -2.91,1.008 -3.072,0.638 -3.38,0.43 -3.468,0 c 0,-0.182 0.249,-0.121 0.168,-0.396 -0.269,-0.101 -0.894,-0.222 -1.068,0.06 0.282,0.41 0.168,1.209 0.396,1.68 -0.894,-0.141 -1.532,0.188 -2.244,0.39 0.067,-0.666 -0.538,-1.048 -0.276,-1.513 0.201,-0.369 0.861,-0.08 1.008,-0.617 -0.088,-0.082 -0.262,-0.075 -0.336,-0.168 h -0.229 c -0.853,0.067 -1.531,0.517 -1.397,1.404 -0.417,-0.256 -1.075,-0.759 -1.626,-1.069 0.039,-0.12 0.262,-0.181 0.114,-0.335 h -0.894 c -0.027,0.571 0.383,1.182 0.84,1.457 0.027,0.948 0.726,1.439 0.84,2.131 -0.753,-0.061 -1.95,-0.538 -2.467,-1.069 -0.134,-0.135 -0.323,-0.39 -0.282,-0.672 0.054,-0.39 0.834,-0.524 0.901,-0.947 0.027,-0.208 -0.108,-0.598 -0.45,-0.672 -0.142,0.242 -0.081,0.457 0.053,0.672 -0.228,0.382 -0.766,0.457 -0.839,1.008 v 0.054 c 0.12,-0.007 0.027,0.201 0.053,0.283 0.524,0.847 1.586,1.43 2.527,1.786 0.282,0.115 0.585,0.121 0.894,0.229 0.316,0.101 0.544,0.282 0.894,0.336 1.001,0.135 2.116,0.008 3.084,0.222 0.739,0.161 0.834,0.987 1.116,1.512 0.06,0.108 0.201,0.209 0.282,0.336 0.261,0.396 0.417,0.719 1.008,0.786 0.06,0.162 0.154,0.29 0.282,0.39 0.128,-0.107 0.147,-0.107 0.275,0 0.209,-0.074 0.269,-0.403 0.565,-0.222 -0.047,-0.04 -0.128,-0.315 0,-0.336 C -0.229,6.801 -0.135,6.841 0,6.828 0.014,6.539 0.181,6.411 0.336,6.27 0.464,6.149 0.269,6.102 0.282,5.933 0.718,5.625 0.639,4.718 0.504,4.139 0.067,4.227 0.343,3.596 -0.054,3.635 -0.027,3.447 -0.074,3.327 -0.108,3.192 -0.229,3.105 -0.396,3.065 -0.444,2.91 -0.39,2.413 -0.632,1.868 -0.949,1.451 -0.692,0.908 -0.288,0.511 0,0"
             style="fill:#231f20;fill-opacity:1;fill-rule:nonzero;stroke:none"
             id="path270" />
        </g>
      </g>
    </g>
  </g>
</svg>
