<?xml version="1.0" encoding="UTF-8" standalone="no"?>
<!-- Created with Inkscape (http://www.inkscape.org/) -->

<svg
   width="7.9996977mm"
   height="7.9994535mm"
   viewBox="0 0 7.9996977 7.9994535"
   version="1.1"
   id="svg9868"
   inkscape:version="1.2.2 (732a01da63, 2022-12-09)"
   sodipodi:docname="background.svg"
   inkscape:export-filename="pentagon.svg"
   inkscape:export-xdpi="96"
   inkscape:export-ydpi="96"
   xmlns:inkscape="http://www.inkscape.org/namespaces/inkscape"
   xmlns:sodipodi="http://sodipodi.sourceforge.net/DTD/sodipodi-0.dtd"
   xmlns="http://www.w3.org/2000/svg"
   xmlns:svg="http://www.w3.org/2000/svg">
  <sodipodi:namedview
     id="namedview9870"
     pagecolor="#ffffff"
     bordercolor="#999999"
     borderopacity="1"
     inkscape:showpageshadow="0"
     inkscape:pageopacity="0"
     inkscape:pagecheckerboard="true"
     inkscape:deskcolor="#d1d1d1"
     inkscape:document-units="mm"
     showgrid="false"
     inkscape:zoom="2.9540685"
     inkscape:cx="26.573521"
     inkscape:cy="50.100396"
     inkscape:window-width="1920"
     inkscape:window-height="1009"
     inkscape:window-x="-8"
     inkscape:window-y="355"
     inkscape:window-maximized="1"
     inkscape:current-layer="layer1" />
  <defs
     id="defs9865">
    <clipPath
       clipPathUnits="userSpaceOnUse"
       id="clipPath1262">
      <path
         d="m 133.204,27.331 h 22.677 v 22.676 h -22.677 z"
         id="path1260" />
    </clipPath>
  </defs>
  <g
     inkscape:label="Lager 1"
     inkscape:groupmode="layer"
     id="layer1"
     transform="translate(-63.472323,-142.23986)">
    <g
       id="g1256"
       transform="matrix(0.35277777,0,0,-0.35277777,16.480669,159.88122)">
      <g
         id="g1258"
         clip-path="url(#clipPath1262)">
        <g
           id="g1264"
           transform="matrix(1.6645021,0,0,-1.7501295,126.95665,36.119659)">
          <g
             id="g1266"
             transform="translate(12.3157,-0.7895)">
            <path
               d="M 0,0 C 0,0.965 -0.785,1.75 -1.75,1.75 -2.714,1.75 -3.5,0.965 -3.5,0 c 0,-0.965 0.786,-1.75 1.75,-1.75 C -0.785,-1.75 0,-0.965 0,0 M 5.062,-2.196 0.355,-2.88 -1.75,-7.146 -3.855,-2.88 -8.562,-2.196 -5.156,1.123 -5.959,5.811 -1.75,3.597 2.46,5.811 1.656,1.123 Z"
               style="fill:#231f20;fill-opacity:1;fill-rule:nonzero;stroke:none"
               id="path1268" />
          </g>
        </g>
      </g>
    </g>
  </g>
</svg>
