<?xml version="1.0" encoding="UTF-8" standalone="no"?>
<!-- Created with Inkscape (http://www.inkscape.org/) -->

<svg
   width="200mm"
   height="200.02116mm"
   viewBox="0 0 200 200.02116"
   version="1.1"
   id="svg19477"
   inkscape:export-filename="pink.svg"
   inkscape:export-xdpi="96"
   inkscape:export-ydpi="96"
   xmlns:inkscape="http://www.inkscape.org/namespaces/inkscape"
   xmlns:sodipodi="http://sodipodi.sourceforge.net/DTD/sodipodi-0.dtd"
   xmlns="http://www.w3.org/2000/svg"
   xmlns:svg="http://www.w3.org/2000/svg">
  <sodipodi:namedview
     id="namedview19479"
     pagecolor="#ffffff"
     bordercolor="#999999"
     borderopacity="1"
     inkscape:showpageshadow="0"
     inkscape:pageopacity="0"
     inkscape:pagecheckerboard="true"
     inkscape:deskcolor="#d1d1d1"
     inkscape:document-units="mm"
     showgrid="false"
     inkscape:zoom="8.3553674"
     inkscape:cx="8.1384812"
     inkscape:cy="1.7952532"
     inkscape:window-width="1920"
     inkscape:window-height="1009"
     inkscape:window-x="-8"
     inkscape:window-y="355"
     inkscape:window-maximized="1"
     inkscape:current-layer="layer1" />
  <defs
     id="defs19474">
    <clipPath
       clipPathUnits="userSpaceOnUse"
       id="clipPath278-7">
      <path
         d="m 129.438,739.171 h 22.652 v 22.652 h -22.652 z"
         id="path276-7" />
    </clipPath>
  </defs>
  <g
     inkscape:label="Lager 1"
     inkscape:groupmode="layer"
     id="layer1"
     transform="translate(-333.15879,-248.69233)">
    <g
       id="g272"
       transform="matrix(10.581451,0,0,-10.581451,-1056.3254,8290.0512)">
      <g
         id="g274"
         clip-path="url(#clipPath278-7)">
        <g
           id="g280"
           transform="translate(149.8147,750.4971)">
          <path
             d="m 0,0 c 0,-4.999 -4.052,-9.052 -9.051,-9.052 -4.999,0 -9.051,4.053 -9.051,9.052 0,4.998 4.052,9.052 9.051,9.052 C -4.052,9.052 0,4.998 0,0"
             style="fill:#fff652;fill-opacity:1;fill-rule:nonzero;stroke:none"
             id="path282" />
        </g>
        <g
           id="g284"
           transform="translate(149.8147,750.4971)">
          <path
             d="m 0,0 c 0,-4.999 -4.052,-9.052 -9.051,-9.052 -4.999,0 -9.051,4.053 -9.051,9.052 0,4.998 4.052,9.052 9.051,9.052 C -4.052,9.052 0,4.998 0,0 Z"
             style="fill:none;stroke:#231f20;stroke-width:0.799;stroke-linecap:butt;stroke-linejoin:miter;stroke-miterlimit:10;stroke-dasharray:none;stroke-opacity:1"
             id="path286" />
        </g>
        <g
           id="g288"
           transform="translate(146.164,747.9261)">
          <path
             d="M 0,0 C -0.088,0.283 -0.496,0.694 -0.448,1.245 -0.397,1.795 0.04,3.053 -0.074,3.589 -0.187,4.126 -0.756,5.703 -2.229,5.942 -3.701,6.18 -4.758,5.785 -5.322,5.81 -5.886,5.836 -5.989,6.262 -6.612,6.257 -7.417,6.249 -7.556,5.915 -8.125,5.736 -8.542,5.604 -9.849,5.606 -9.849,5.606 c 0,0 -0.373,0.487 -0.488,0.309 -0.114,-0.179 -0.26,-0.634 -0.26,-0.634 0,0 -0.699,-0.244 -0.764,-0.374 -0.066,-0.131 -0.154,-0.342 -0.154,-0.342 0,0 -0.741,-0.195 -0.822,-0.374 -0.082,-0.179 0.325,-0.601 0.455,-0.748 0.13,-0.147 1.643,-0.179 1.883,-0.356 0.239,-0.177 0.91,-0.309 1.285,-0.373 0.704,-0.122 1.012,-1.519 1.191,-3.063 -0.212,-0.18 -0.586,-0.338 -0.606,-0.832 h 2.293 c 0,0 0.03,0.33 0.07,0.737 0.038,0.408 0.732,1.952 0.732,1.952 0,0 0.503,-0.391 0.845,-0.407 -0.032,-0.309 0.112,-0.637 0.112,-0.637 0,0 0.296,-0.355 0.582,-0.636 -0.525,-0.216 -0.51,-0.598 -0.51,-0.598 l 1.946,-0.015 c 0,0 0.195,0.405 0.195,0.731 0.261,-0.374 0.765,-0.521 0.765,-0.521 l -0.314,-0.606 h 1.191 c 0,0 0.311,0.899 0.222,1.181"
             style="fill:#231f20;fill-opacity:1;fill-rule:nonzero;stroke:none"
             id="path290" />
        </g>
      </g>
    </g>
  </g>
</svg>
